# xmcd
#
# Track frame offsets: 
#        150
#        14937
#        30047
#        43532
#        56262
#        66677
#        78970
#        101727
#        111987
#        130640
#        144032
#        158497
#        173240
#        189440
#        200417
#        214242
#        236397
#        252255
#        266710
#        285562
#
# Disc length: 3945 seconds
#
# Revision: 0
# Processed by: cddbd v1.5.2PL0 Copyright (c) Steve Scherf et al.
# Submitted via: ExactAudioCopy v0.99pb4
#
DISCID=140f6714
DTITLE=Various Artist - country music special - a retrospective
DYEAR=1995
DGENRE=Country
TTITLE0=david allan coe - standing too close to the flame
TTITLE1=tom russell band - mezcal
TTITLE2=billie jo spears - one smokey rose
TTITLE3=nugget - one piece at a time
TTITLE4=dave dudley and drifters caravan - six days on the road
TTITLE5=barry and holly tashian (feat. emmylou harris) - ring of gold
TTITLE6=big al downing - mr. jones
TTITLE7=los mariachis del mariachi - el tilingo lingo
TTITLE8=lewis niderman and band - the accordion man
TTITLE9=christine albert - i'm wakin' up
TTITLE10=jim eanes and hard times - baby blue eyes
TTITLE11=john brack - i might
TTITLE12=robert steubl and band - fireman's life, fireman's fight
TTITLE13=charlie louvin - the gospel way
TTITLE14=f. baum and country green and jill morris - no more sad songs
TTITLE15=ed bruce and texas radio - mama's don't let your babies grow up
TTITLE15=
TTITLE16=paul mac bonvin (feat. jo el sonnier) - main du ton
TTITLE17=paddy o'brien - summer's back in ireland
TTITLE18=rodeo - orange blossom special
TTITLE19=joe sun - jimmy '93 (special version)
EXTD=
EXTT0=
EXTT1=
EXTT2=
EXTT3=
EXTT4=
EXTT5=
EXTT6=
EXTT7=
EXTT8=
EXTT9=
EXTT10=
EXTT11=
EXTT12=
EXTT13=
EXTT14=
EXTT15=
EXTT16=
EXTT17=
EXTT18=
EXTT19=
PLAYORDER=
